:FULLY-SPECIFIED
:FORCE-ALL-JOINTS-BE-3DOF
:DEGREES
2242
root -0.708995 13.8326 -16.5931 -168.234 -26.3907 168.679
lfemur 11.5145 -1.16666 -15.2972
ltibia 32.0126 -0 0
lfoot -23.6197 36.773 0.00169349
ltoes -44.2639 0 0
rfemur -72.4281 -23.6227 9.19113
rtibia 74.3345 -0 0
rfoot -6.88764 14.3427 -0.00442924
rtoes 4.21502 -0 0
lowerback 9.17538 1.90381 -13.3728
upperback -3.0417 0.517761 -2.02726
thorax -8.6592 0.827299 5.24519
lowerneck 0.897625 -12.101 -12.3496
upperneck 4.90227 -16.8368 10.3433
head 3.22955 -8.45403 4.35894
lclavicle -6.35614e-14 -4.25399e-14 0
lhumerus -69.5265 -17.9477 103.984
lradius 102.02 -0 0
lwrist 60.9119 0 0
lhand -11.6306 61.6356 -0.000154579
lfingers 7.12502 -0 0
lthumb 14.4129 -91.1146 0.000253245
rclavicle -6.35614e-14 -4.25399e-14 0
rhumerus 49.1021 -9.77911 -58.6488
rradius 16.9452 -0 0
rwrist 34.5135 0 0
rhand -19.6208 -42.5668 -0.00014012
rfingers 7.12502 -0 0
rthumb 6.70585 -72.4401 -0.000131169
2243
root -0.713603 13.826 -16.5995 -168.13 -26.2519 168.655
lfemur 11.6745 -1.11586 -15.3462
ltibia 31.7451 -0 0
lfoot -23.5453 36.8151 0.0012863
ltoes -44.4853 0 0
rfemur -72.6565 -23.614 9.25478
rtibia 74.5362 -0 0
rfoot -7.00441 14.4129 -0.00336426
rtoes 4.34239 -0 0
lowerback 9.02455 1.92317 -13.4341
upperback -3.05342 0.554872 -2.05344
thorax -8.59278 0.842965 5.24463
lowerneck 0.873485 -12.1152 -12.3355
upperneck 4.88413 -16.8531 10.3662
head 3.23069 -8.46061 4.36121
lclavicle -6.35614e-14 -4.25399e-14 0
lhumerus -69.5065 -17.9973 104
lradius 101.982 -0 0
lwrist 60.9346 0 0
lhand -11.576 61.6304 -0.000117412
lfingers 7.12502 -0 0
lthumb 14.4655 -91.1057 0.000192355
rclavicle -6.35614e-14 -4.25399e-14 0
rhumerus 49.1123 -9.77115 -58.6824
rradius 16.9368 -0 0
rwrist 34.4891 0 0
rhand -19.6373 -42.5511 -0.000106429
rfingers 7.12502 -0 0
rthumb 6.68993 -72.4249 -9.9631e-05
2244
root -0.717582 13.8203 -16.6045 -168.041 -26.132 168.634
lfemur 11.8128 -1.07186 -15.3884
ltibia 31.5141 -0 0
lfoot -23.481 36.8515 0.000890509
ltoes -44.6765 0 0
rfemur -72.8538 -23.6063 9.30974
rtibia 74.7105 -0 0
rfoot -7.10529 14.4735 -0.00232907
rtoes 4.45244 -0 0
lowerback 8.89422 1.93976 -13.4872
upperback -3.06356 0.586929 -2.07607
thorax -8.5354 0.8565 5.24416
lowerneck 0.852626 -12.1274 -12.3232
upperneck 4.86845 -16.8672 10.3861
head 3.23167 -8.46629 4.36317
lclavicle -6.35614e-14 -4.25399e-14 0
lhumerus -69.4892 -18.0402 104.013
lradius 101.948 -0 0
lwrist 60.9542 0 0
lhand -11.5289 61.6258 -8.12844e-05
lfingers 7.12502 -0 0
lthumb 14.511 -91.098 0.000133168
rclavicle -6.35614e-14 -4.25399e-14 0
rhumerus 49.1211 -9.76427 -58.7114
rradius 16.9295 -0 0
rwrist 34.4681 0 0
rhand -19.6516 -42.5375 -7.36814e-05
rfingers 7.12502 -0 0
rthumb 6.67618 -72.4117 -6.89748e-05
2245
root -0.720839 13.8157 -16.6083 -167.969 -26.0337 168.617
lfemur 11.9259 -1.03575 -15.4229
ltibia 31.3248 -0 0
lfoot -23.4284 36.8813 0.00053601
ltoes -44.8331 0 0
rfemur -73.0153 -23.5998 9.35472
rtibia 74.8531 -0 0
rfoot -7.1879 14.5231 -0.00140189
rtoes 4.54255 -0 0
lowerback 8.78748 1.95325 -13.5306
upperback -3.07187 0.613178 -2.0946
thorax -8.48842 0.867584 5.24379
lowerneck 0.835542 -12.1375 -12.3132
upperneck 4.8556 -16.8787 10.4023
head 3.23247 -8.47094 4.36477
lclavicle -6.35614e-14 -4.25399e-14 0
lhumerus -69.475 -18.0754 104.024
lradius 101.921 -0 0
lwrist 60.9702 0 0
lhand -11.4903 61.6221 -4.89263e-05
lfingers 7.12502 -0 0
lthumb 14.5482 -91.0917 8.01558e-05
rclavicle -6.35614e-14 -4.25399e-14 0
rhumerus 49.1283 -9.75862 -58.7352
rradius 16.9235 -0 0
rwrist 34.4509 0 0
rhand -19.6632 -42.5264 -4.435e-05
rfingers 7.12502 -0 0
rthumb 6.66491 -72.4009 -4.1517e-05
2246
root -0.723281 13.8122 -16.6109 -167.914 -25.9601 168.605
lfemur 12.0108 -1.00863 -15.4487
ltibia 31.1829 -0 0
lfoot -23.3889 36.9036 0.000252182
ltoes -44.9505 0 0
rfemur -73.1365 -23.5949 9.38844
rtibia 74.9602 -0 0
rfoot -7.24986 14.5603 -0.000659561
rtoes 4.61014 -0 0
lowerback 8.70742 1.96332 -13.5632
upperback -3.07812 0.632863 -2.1085
thorax -8.45318 0.875898 5.24352
lowerneck 0.822727 -12.145 -12.3057
upperneck 4.84597 -16.8874 10.4145
head 3.23308 -8.47443 4.36597
lclavicle -6.35614e-14 -4.25399e-14 0
lhumerus -69.4644 -18.1017 104.032
lradius 101.9 -0 0
lwrist 60.9822 0 0
lhand -11.4613 61.6194 -2.30189e-05
lfingers 7.12502 -0 0
lthumb 14.5761 -91.087 3.77117e-05
rclavicle -6.35614e-14 -4.25399e-14 0
rhumerus 49.1337 -9.75439 -58.753
rradius 16.9191 -0 0
rwrist 34.4379 0 0
rhand -19.672 -42.5181 -2.08658e-05
rfingers 7.12502 -0 0
rthumb 6.65647 -72.3928 -1.9533e-05
2247
root -0.724814 13.81 -16.6123 -167.88 -25.9138 168.597
lfemur 12.0641 -0.991568 -15.4649
ltibia 31.0937 -0 0
lfoot -23.3641 36.9176 6.60094e-05
ltoes -45.0243 0 0
rfemur -73.2126 -23.5918 9.40961
rtibia 75.0274 -0 0
rfoot -7.28878 14.5837 -0.000172642
rtoes 4.6526 -0 0
lowerback 8.65712 1.96963 -13.5837
upperback -3.08204 0.645228 -2.11724
thorax -8.43104 0.88112 5.24335
lowerneck 0.814676 -12.1498 -12.3009
upperneck 4.83991 -16.8928 10.4221
head 3.23346 -8.47662 4.36673
lclavicle -6.35614e-14 -4.25399e-14 0
lhumerus -69.4577 -18.1183 104.037
lradius 101.887 -0 0
lwrist 60.9898 0 0
lhand -11.4431 61.6176 -6.02527e-06
lfingers 7.12502 -0 0
lthumb 14.5936 -91.084 9.87117e-06
rclavicle -6.35614e-14 -4.25399e-14 0
rhumerus 49.1371 -9.75173 -58.7642
rradius 16.9163 -0 0
rwrist 34.4298 0 0
rhand -19.6775 -42.5128 -5.4617e-06
rfingers 7.12502 -0 0
rthumb 6.65116 -72.3878 -5.11282e-06
2248
root -0.754418 13.7695 -16.7012 -167.868 -25.8977 168.594
lfemur 12.0826 -0.985646 -15.4705
ltibia 31.0628 0 0
lfoot -23.3555 36.9225 0
ltoes -45.0499 0 0
rfemur -73.239 -23.5907 9.41696
rtibia 75.0507 0 0
rfoot -7.30228 14.5918 0
rtoes 4.66733 0 0
lowerback 8.63967 1.97181 -13.5908
upperback -3.0834 0.649518 -2.12027
thorax -8.42336 0.882932 5.24329
lowerneck 0.811883 -12.1514 -12.2993
upperneck 4.83781 -16.8947 10.4248
head 3.23359 -8.47738 4.36699
lclavicle -1.963e-15 2.9768e-14 0
lhumerus -69.4554 -18.124 104.039
lradius 101.883 0 0
lwrist 60.9924 0 0
lhand -11.4368 61.617 0
lfingers 7.12502 0 0
lthumb 14.5997 -91.083 0
rclavicle -1.963e-15 2.9768e-14 0
rhumerus 49.1383 -9.75081 -58.7681
rradius 16.9153 0 0
rwrist 34.427 0 0
rhand -19.6794 -42.511 0
rfingers 7.12502 0 0
rthumb 6.64932 -72.386 0
2249
root -0.758401 13.7641 -16.7131 -167.847 -25.9041 168.582
lfemur 12.0895 -0.975915 -15.4676
ltibia 31.0361 -0 0
lfoot -23.3409 36.9094 -5.75282e-05
ltoes -45.0894 0 0
rfemur -73.265 -23.602 9.40766
rtibia 75.0854 -0 0
rfoot -7.32328 14.5796 7.69194e-05
rtoes 4.64519 -0 0
lowerback 8.63568 1.97338 -13.6108
upperback -3.08543 0.649001 -2.12244
thorax -8.42393 0.88356 5.25204
lowerneck 0.812109 -12.1534 -12.2953
upperneck 4.82204 -16.8956 10.4247
head 3.2286 -8.47767 4.36683
lclavicle -1.963e-15 2.9768e-14 0
lhumerus -69.4608 -18.1341 104.046
lradius 101.881 -0 0
lwrist 61.0383 0 0
lhand -11.4832 61.4189 0.00277002
lfingers 7.12502 -0 0
lthumb 14.5939 -86.1446 -0.0682854
rclavicle -1.963e-15 2.9768e-14 0
rhumerus 49.1404 -9.75463 -58.7476
rradius 16.9209 -0 0
rwrist 34.407 0 0
rhand -19.6767 -42.5102 6.23384e-07
rfingers 7.12502 -0 0
rthumb 6.65195 -72.3852 6.46133e-07
2250
root -0.762052 13.7593 -16.7235 -167.819 -25.9124 168.566
lfemur 12.0983 -0.963388 -15.4638
ltibia 31.0017 -0 0
lfoot -23.3221 36.8925 -0.000126675
ltoes -45.1403 0 0
rfemur -73.2984 -23.6166 9.39569
rtibia 75.13 -0 0
rfoot -7.35031 14.564 0.000169374
rtoes 4.61669 -0 0
lowerback 8.63053 1.9754 -13.6365
upperback -3.08804 0.648335 -2.12524
thorax -8.42466 0.884369 5.26331
lowerneck 0.812399 -12.156 -12.2901
upperneck 4.80175 -16.8968 10.4245
head 3.22217 -8.47805 4.36663
lclavicle -1.963e-15 2.9768e-14 0
lhumerus -69.4679 -18.1472 104.054
lradius 101.879 -0 0
lwrist 61.0975 0 0
lhand -11.543 61.164 0.00609974
lfingers 7.12502 -0 0
lthumb 14.5778 -79.787 -0.155015
rclavicle -1.963e-15 2.9768e-14 0
rhumerus 49.1431 -9.75955 -58.7212
rradius 16.9281 -0 0
rwrist 34.3813 0 0
rhand -19.6732 -42.5093 1.37267e-06
rfingers 7.12502 -0 0
rthumb 6.65533 -72.3841 1.42276e-06
2251
root -0.765386 13.7551 -16.7326 -167.786 -25.9222 168.547
lfemur 12.1089 -0.948401 -15.4594
ltibia 30.9605 -0 0
lfoot -23.2997 36.8723 -0.000202138
ltoes -45.2012 0 0
rfemur -73.3384 -23.634 9.38138
rtibia 75.1835 -0 0
rfoot -7.38266 14.5452 0.000270274
rtoes 4.58259 -0 0
lowerback 8.62438 1.97781 -13.6672
upperback -3.09116 0.647537 -2.12859
thorax -8.42554 0.885337 5.27679
lowerneck 0.812747 -12.159 -12.284
upperneck 4.77747 -16.8982 10.4243
head 3.21448 -8.4785 4.36638
lclavicle -1.963e-15 2.9768e-14 0
lhumerus -69.4763 -18.1628 104.064
lradius 101.877 -0 0
lwrist 61.1683 0 0
lhand -11.6145 60.8589 0.00973397
lfingers 7.12502 -0 0
lthumb 14.5462 -72.1805 -0.255653
rclavicle -1.963e-15 2.9768e-14 0
rhumerus 49.1464 -9.76544 -58.6896
rradius 16.9367 -0 0
rwrist 34.3506 0 0
rhand -19.669 -42.5081 2.1904e-06
rfingers 7.12502 -0 0
rthumb 6.65938 -72.3829 2.27033e-06
2252
root -0.768417 13.7514 -16.7405 -167.748 -25.9335 168.525
lfemur 12.121 -0.93129 -15.4542
ltibia 30.9135 -0 0
lfoot -23.274 36.8493 -0.000278623
ltoes -45.2707 0 0
rfemur -73.3841 -23.6539 9.36505
rtibia 75.2445 -0 0
rfoot -7.41959 14.5238 0.00037254
rtoes 4.54365 -0 0
lowerback 8.61735 1.98056 -13.7023
upperback -3.09472 0.646627 -2.13242
thorax -8.42654 0.886443 5.29219
lowerneck 0.813143 -12.1625 -12.2769
upperneck 4.74974 -16.8999 10.424
head 3.20571 -8.47902 4.3661
lclavicle -1.963e-15 2.9768e-14 0
lhumerus -69.4858 -18.1807 104.075
lradius 101.874 -0 0
lwrist 61.249 0 0
lhand -11.6962 60.5106 0.0134177
lfingers 7.12502 -0 0
lthumb 14.4941 -63.4954 -0.36425
rclavicle -1.963e-15 2.9768e-14 0
rhumerus 49.1501 -9.77217 -58.6535
rradius 16.9466 -0 0
rwrist 34.3154 0 0
rhand -19.6642 -42.5067 3.0192e-06
rfingers 7.12502 -0 0
rthumb 6.664 -72.3814 3.12938e-06
2253
root -0.771158 13.7482 -16.7471 -167.706 -25.9459 168.502
lfemur 12.1344 -0.912392 -15.4486
ltibia 30.8615 -0 0
lfoot -23.2457 36.8238 -0.000351112
ltoes -45.3475 0 0
rfemur -73.4346 -23.6759 9.34704
rtibia 75.3119 -0 0
rfoot -7.46038 14.5002 0.000469463
rtoes 4.50064 -0 0
lowerback 8.60958 1.98359 -13.7411
upperback -3.09866 0.645621 -2.13664
thorax -8.42764 0.887665 5.30919
lowerneck 0.81358 -12.1664 -12.2691
upperneck 4.71912 -16.9017 10.4237
head 3.19601 -8.47959 4.36579
lclavicle -1.963e-15 2.9768e-14 0
lhumerus -69.4964 -18.2004 104.088
lradius 101.87 -0 0
lwrist 61.3383 0 0
lhand -11.7865 60.1258 0.0169094
lfingers 7.12502 -0 0
lthumb 14.4182 -53.9018 -0.473521
rclavicle -1.963e-15 2.9768e-14 0
rhumerus 49.1542 -9.77961 -58.6136
rradius 16.9574 -0 0
rwrist 34.2766 0 0
rhand -19.6589 -42.5053 3.8047e-06
rfingers 7.12502 -0 0
rthumb 6.6691 -72.3798 3.94354e-06
2254
root -0.773624 13.7454 -16.7527 -167.661 -25.9592 168.476
lfemur 12.1488 -0.89204 -15.4424
ltibia 30.8056 -0 0
lfoot -23.2152 36.7964 -0.000415097
ltoes -45.4302 0 0
rfemur -73.4889 -23.6997 9.32766
rtibia 75.3844 -0 0
rfoot -7.50431 14.4747 0.000555015
rtoes 4.45432 -0 0
lowerback 8.60121 1.98685 -13.7829
upperback -3.1029 0.644538 -2.14119
thorax -8.42883 0.888981 5.3275
lowerneck 0.81405 -12.1706 -12.2607
upperneck 4.68613 -16.9036 10.4234
head 3.18557 -8.4802 4.36546
lclavicle -1.963e-15 2.9768e-14 0
lhumerus -69.5079 -18.2216 104.102
lradius 101.867 -0 0
lwrist 61.4344 0 0
lhand -11.8837 59.7115 0.0199916
lfingers 7.12502 -0 0
lthumb 14.3175 -43.5699 -0.575274
rclavicle -1.963e-15 2.9768e-14 0
rhumerus 49.1586 -9.78761 -58.5707
rradius 16.9691 -0 0
rwrist 34.2349 0 0
rhand -19.6532 -42.5037 4.49804e-06
rfingers 7.12502 -0 0
rthumb 6.6746 -72.3781 4.66218e-06
